<svg width="155" height="187" viewBox="0 0 155 187" fill="none" xmlns="http://www.w3.org/2000/svg">
<path fill-rule="evenodd" clip-rule="evenodd" d="M130.906 77.8132C108.978 56.5285 75.8561 20.1159 73.3518 0C64.2998 11.3804 47.2585 38.921 51.509 58.0401C51.8061 59.3763 52.3548 60.6536 53.1279 61.8741C48.2067 56.4476 43.4888 48.4522 44.7044 39.584C38.0867 47.4416 17.9966 72.3368 6.93081 97.2229C2.47962 105.103 0 113.859 0 123.082C0 157.582 34.6979 185.55 77.5 185.55C90.088 185.55 101.975 183.131 112.485 178.838C117.125 181.032 123.344 184.004 126.683 185.69C127.178 186.18 127.729 186.558 128.34 186.787C129.799 187.333 128.844 186.781 126.683 185.69C123.967 182.998 122.935 176.938 122.76 173.799V173.796C142.287 162.454 155 143.964 155 123.082C155 105.267 145.748 89.1933 130.906 77.8132Z" fill="url(#paint0_linear)"/>
<ellipse cx="79.36" cy="120.608" rx="54.56" ry="40.2025" fill="white"/>
<rect x="54.5601" y="108.856" width="49.6" height="3.711" rx="1.8555" fill="#F47E65"/>
<rect x="54.5601" y="118.752" width="37.2" height="3.711" rx="1.8555" fill="#F47E65"/>
<rect x="54.5601" y="128.648" width="23.56" height="3.711" rx="1.8555" fill="#F47E65"/>
<path d="M37.82 145.966H81.84V160.81H29.76L37.82 145.966Z" fill="white"/>
<defs>
<linearGradient id="paint0_linear" x1="76.26" y1="0" x2="76.26" y2="187" gradientUnits="userSpaceOnUse">
<stop stop-color="#FE407A"/>
<stop offset="1" stop-color="#F38662"/>
</linearGradient>
</defs>
</svg>
