<svg width="40" height="41" viewBox="0 0 40 41" fill="none" xmlns="http://www.w3.org/2000/svg">
<path d="M6.58398 40.1172C8.1416 40.1172 9.18652 39.3408 9.50879 37.9492H8.62012C8.36621 38.8086 7.62402 39.3066 6.58887 39.3066C5.19727 39.3066 4.31348 38.2031 4.31348 36.4746C4.31348 34.7607 5.20703 33.6475 6.58398 33.6475C7.58984 33.6475 8.39551 34.2529 8.62012 35.1758H9.50879C9.28418 33.7695 8.11719 32.8369 6.58398 32.8369C4.65527 32.8369 3.41016 34.2627 3.41016 36.4746C3.41016 38.7061 4.64062 40.1172 6.58398 40.1172ZM10.4609 40H11.3105V37.041C11.3105 36.1621 11.833 35.5859 12.6777 35.5859C13.4736 35.5859 13.8789 36.0693 13.8789 36.875V40H14.7285V36.7188C14.7285 35.5859 14.0547 34.834 12.9414 34.834C12.1699 34.834 11.6133 35.166 11.3301 35.7324H11.3105V32.9541H10.4609V40ZM17.292 40.0879C17.9756 40.0879 18.6201 39.707 18.9229 39.126H18.9424V40H19.748V36.4893C19.748 35.4785 18.9961 34.834 17.8047 34.834C16.6035 34.834 15.8516 35.5078 15.793 36.3867H16.6133C16.7207 35.8887 17.1309 35.5811 17.7852 35.5811C18.4883 35.5811 18.8984 35.9521 18.8984 36.5723V36.9971L17.4434 37.0801C16.2715 37.1484 15.6025 37.6953 15.6025 38.5645C15.6025 39.4775 16.2812 40.0879 17.292 40.0879ZM17.4824 39.3652C16.8721 39.3652 16.4668 39.0479 16.4668 38.5645C16.4668 38.0859 16.8574 37.7832 17.541 37.7393L18.8984 37.6562V38.0713C18.8984 38.8037 18.2832 39.3652 17.4824 39.3652ZM21.1006 33.6963V34.9219H20.3438V35.6201H21.1006V38.6816C21.1006 39.6582 21.4619 40.0391 22.3945 40.0391C22.5947 40.0391 22.8291 40.0244 22.9316 40V39.2871C22.873 39.2969 22.6777 39.3115 22.5801 39.3115C22.1455 39.3115 21.9502 39.1016 21.9502 38.6377V35.6201H22.9365V34.9219H21.9502V33.6963H21.1006ZM23.7568 36.3232C23.7568 37.0557 24.2207 37.5 25.1777 37.7295L25.9834 37.9248C26.5645 38.0664 26.7646 38.2764 26.7646 38.6426C26.7646 39.1016 26.3398 39.3945 25.6514 39.3945C24.9629 39.3945 24.5723 39.1162 24.4697 38.5352H23.6201C23.7178 39.4873 24.46 40.0879 25.6514 40.0879C26.7842 40.0879 27.6191 39.4629 27.6191 38.5791C27.6191 37.8516 27.248 37.4512 26.2227 37.2021L25.417 37.0068C24.8506 36.8701 24.5918 36.6309 24.5918 36.2793C24.5918 35.835 25.002 35.5273 25.6221 35.5273C26.2471 35.5273 26.6377 35.8545 26.7012 36.3867H27.5117C27.4775 35.4883 26.7354 34.834 25.6221 34.834C24.5234 34.834 23.7568 35.4541 23.7568 36.3232Z" fill="white"/>
<path fill-rule="evenodd" clip-rule="evenodd" d="M24 12.9C24 18.3676 18.6274 22.8 12 22.8C11.1069 22.8 10.2366 22.7195 9.39917 22.5668L7.63636 23.9C6.56968 24.617 5.31355 25 4.02827 25H3.27272L3.63721 24.6325C4.11497 24.1507 4.47447 23.5647 4.68742 22.9205C4.83425 22.4763 4.90908 22.0116 4.90908 21.5438V20.8875C1.93245 19.0859 0 16.1791 0 12.9C0 7.43238 5.37258 3 12 3C18.6274 3 24 7.43238 24 12.9ZM13.5 24.5C15.1476 25.2022 17.0177 25.8 19 25.8C19.8931 25.8 20.7634 25.7195 21.6008 25.5668L23.3636 26.9C24.4303 27.617 25.6864 28 26.9717 28H27.7273L27.3628 27.6325C26.885 27.1507 26.5255 26.5647 26.3126 25.9205C26.1657 25.4763 26.0909 25.0116 26.0909 24.5438V23.8875C28.73 22.2902 30.5483 19.8241 30.9268 17H24.5C23.2397 20.1509 20.5811 22.533 17.3113 23.4413L13.5 24.5Z" fill="white"/>
<rect x="14.5" y="0.5" width="25" height="15" rx="7.5" fill="white" stroke="#1C1C1C"/>
<rect x="20" y="5" width="15" height="2" rx="1" fill="#C4C4C4"/>
<rect x="20" y="9" width="10" height="2" rx="1" fill="#C4C4C4"/>
</svg>
