<svg width="40" height="41" viewBox="0 0 40 41" fill="none" xmlns="http://www.w3.org/2000/svg">
<path opacity="0.5" d="M5.58398 40.1172C7.1416 40.1172 8.18652 39.3408 8.50879 37.9492H7.62012C7.36621 38.8086 6.62402 39.3066 5.58887 39.3066C4.19727 39.3066 3.31348 38.2031 3.31348 36.4746C3.31348 34.7607 4.20703 33.6475 5.58398 33.6475C6.58984 33.6475 7.39551 34.2529 7.62012 35.1758H8.50879C8.28418 33.7695 7.11719 32.8369 5.58398 32.8369C3.65527 32.8369 2.41016 34.2627 2.41016 36.4746C2.41016 38.7061 3.64062 40.1172 5.58398 40.1172ZM9.46094 40H10.3105V37.041C10.3105 36.1621 10.833 35.5859 11.6777 35.5859C12.4736 35.5859 12.8789 36.0693 12.8789 36.875V40H13.7285V36.7188C13.7285 35.5859 13.0547 34.834 11.9414 34.834C11.1699 34.834 10.6133 35.166 10.3301 35.7324H10.3105V32.9541H9.46094V40ZM16.292 40.0879C16.9756 40.0879 17.6201 39.707 17.9229 39.126H17.9424V40H18.748V36.4893C18.748 35.4785 17.9961 34.834 16.8047 34.834C15.6035 34.834 14.8516 35.5078 14.793 36.3867H15.6133C15.7207 35.8887 16.1309 35.5811 16.7852 35.5811C17.4883 35.5811 17.8984 35.9521 17.8984 36.5723V36.9971L16.4434 37.0801C15.2715 37.1484 14.6025 37.6953 14.6025 38.5645C14.6025 39.4775 15.2812 40.0879 16.292 40.0879ZM16.4824 39.3652C15.8721 39.3652 15.4668 39.0479 15.4668 38.5645C15.4668 38.0859 15.8574 37.7832 16.541 37.7393L17.8984 37.6562V38.0713C17.8984 38.8037 17.2832 39.3652 16.4824 39.3652ZM20.1006 33.6963V34.9219H19.3438V35.6201H20.1006V38.6816C20.1006 39.6582 20.4619 40.0391 21.3945 40.0391C21.5947 40.0391 21.8291 40.0244 21.9316 40V39.2871C21.873 39.2969 21.6777 39.3115 21.5801 39.3115C21.1455 39.3115 20.9502 39.1016 20.9502 38.6377V35.6201H21.9365V34.9219H20.9502V33.6963H20.1006ZM22.7568 36.3232C22.7568 37.0557 23.2207 37.5 24.1777 37.7295L24.9834 37.9248C25.5645 38.0664 25.7646 38.2764 25.7646 38.6426C25.7646 39.1016 25.3398 39.3945 24.6514 39.3945C23.9629 39.3945 23.5723 39.1162 23.4697 38.5352H22.6201C22.7178 39.4873 23.46 40.0879 24.6514 40.0879C25.7842 40.0879 26.6191 39.4629 26.6191 38.5791C26.6191 37.8516 26.248 37.4512 25.2227 37.2021L24.417 37.0068C23.8506 36.8701 23.5918 36.6309 23.5918 36.2793C23.5918 35.835 24.002 35.5273 24.6221 35.5273C25.2471 35.5273 25.6377 35.8545 25.7012 36.3867H26.5117C26.4775 35.4883 25.7354 34.834 24.6221 34.834C23.5234 34.834 22.7568 35.4541 22.7568 36.3232Z" fill="white"/>
<path fill-rule="evenodd" clip-rule="evenodd" d="M24 12.9C24 18.3676 18.6274 22.8 12 22.8C11.1069 22.8 10.2366 22.7195 9.39917 22.5668L7.63636 23.9C6.56968 24.617 5.31355 25 4.02827 25H3.27272L3.63721 24.6325C4.11497 24.1507 4.47447 23.5647 4.68742 22.9205C4.83425 22.4763 4.90908 22.0116 4.90908 21.5438V20.8875C1.93245 19.0859 0 16.1791 0 12.9C0 7.43238 5.37258 3 12 3C18.6274 3 24 7.43238 24 12.9ZM13.5 24.5C15.1476 25.2022 17.0177 25.8 19 25.8C19.8931 25.8 20.7634 25.7195 21.6008 25.5668L23.3636 26.9C24.4303 27.617 25.6864 28 26.9717 28H27.7273L27.3628 27.6325C26.885 27.1507 26.5255 26.5647 26.3126 25.9205C26.1657 25.4763 26.0909 25.0116 26.0909 24.5438V23.8875C28.73 22.2902 30.5483 19.8241 30.9268 17H24.5C23.2397 20.1509 20.5811 22.533 17.3113 23.4413L13.5 24.5Z" fill="#828282"/>
<rect x="14" width="26" height="16" rx="8" fill="white"/>
<rect x="19" y="5" width="15" height="2" rx="1" fill="#C4C4C4"/>
<rect x="19" y="9" width="10" height="2" rx="1" fill="#C4C4C4"/>
</svg>
