<svg width="20" height="16" viewBox="0 0 20 16" fill="none" xmlns="http://www.w3.org/2000/svg">
<path fill-rule="evenodd" clip-rule="evenodd" d="M19 5.4V12.6C19 13.7046 18.1046 14.6 17 14.6H3C1.89543 14.6 1 13.7046 1 12.6V5.4C1 4.29543 1.89543 3.4 3 3.4H3.79487C4.98199 3.4 6.10779 2.87271 6.86776 1.96074L7.06868 1.71963C7.44867 1.26365 8.01157 1 8.60513 1H11.1574C11.6878 1 12.1965 1.21071 12.5716 1.58579L13.2142 2.22843C13.9644 2.97857 14.9818 3.4 16.0426 3.4H17C18.1046 3.4 19 4.29543 19 5.4ZM0 5.4C0 3.74314 1.34315 2.4 3 2.4H3.79487C4.68521 2.4 5.52956 2.00453 6.09954 1.32055L6.30046 1.07945C6.87044 0.395469 7.71479 0 8.60513 0H11.1574C11.953 0 12.7161 0.316071 13.2787 0.87868L13.9213 1.52132C14.4839 2.08393 15.247 2.4 16.0426 2.4H17C18.6569 2.4 20 3.74315 20 5.4V12.6C20 14.2569 18.6569 15.6 17 15.6H3C1.34315 15.6 0 14.2569 0 12.6V5.4ZM13 8.5C13 10.433 11.433 12 9.5 12C7.567 12 6 10.433 6 8.5C6 6.567 7.567 5 9.5 5C11.433 5 13 6.567 13 8.5ZM14 8.5C14 10.9853 11.9853 13 9.5 13C7.01472 13 5 10.9853 5 8.5C5 6.01472 7.01472 4 9.5 4C11.9853 4 14 6.01472 14 8.5ZM16 6C16.5523 6 17 5.55228 17 5C17 4.44772 16.5523 4 16 4C15.4477 4 15 4.44772 15 5C15 5.55228 15.4477 6 16 6ZM4.00001 0.800022H2.40001V1.60002H4.00001V0.800022Z" fill="#C1C1C1"/>
</svg>
