<svg width="39" height="38" viewBox="0 0 39 38" fill="none" xmlns="http://www.w3.org/2000/svg">
<path d="M3.58398 37.1172C5.1416 37.1172 6.18652 36.3408 6.50879 34.9492H5.62012C5.36621 35.8086 4.62402 36.3066 3.58887 36.3066C2.19727 36.3066 1.31348 35.2031 1.31348 33.4746C1.31348 31.7607 2.20703 30.6475 3.58398 30.6475C4.58984 30.6475 5.39551 31.2529 5.62012 32.1758H6.50879C6.28418 30.7695 5.11719 29.8369 3.58398 29.8369C1.65527 29.8369 0.410156 31.2627 0.410156 33.4746C0.410156 35.7061 1.64062 37.1172 3.58398 37.1172ZM9.52148 37.0879C10.9229 37.0879 11.8701 36.0771 11.8701 34.4609C11.8701 32.8398 10.9229 31.834 9.52148 31.834C8.11523 31.834 7.16797 32.8398 7.16797 34.4609C7.16797 36.0771 8.11523 37.0879 9.52148 37.0879ZM9.52148 36.3408C8.62305 36.3408 8.03223 35.6572 8.03223 34.4609C8.03223 33.2646 8.62305 32.5811 9.52148 32.5811C10.4199 32.5811 11.0059 33.2646 11.0059 34.4609C11.0059 35.6572 10.4199 36.3408 9.52148 36.3408ZM12.7295 37H13.5791V34.0117C13.5791 33.1523 14.1016 32.5859 14.9023 32.5859C15.6836 32.5859 16.0693 33.0352 16.0693 33.8555V37H16.9189V33.7041C16.9189 32.5518 16.2744 31.834 15.1611 31.834C14.375 31.834 13.833 32.1855 13.5498 32.7324H13.5303V31.9219H12.7295V37ZM18.2764 30.6963V31.9219H17.5195V32.6201H18.2764V35.6816C18.2764 36.6582 18.6377 37.0391 19.5703 37.0391C19.7705 37.0391 20.0049 37.0244 20.1074 37V36.2871C20.0488 36.2969 19.8535 36.3115 19.7559 36.3115C19.3213 36.3115 19.126 36.1016 19.126 35.6377V32.6201H20.1123V31.9219H19.126V30.6963H18.2764ZM22.4072 37.0879C23.0908 37.0879 23.7354 36.707 24.0381 36.126H24.0576V37H24.8633V33.4893C24.8633 32.4785 24.1113 31.834 22.9199 31.834C21.7188 31.834 20.9668 32.5078 20.9082 33.3867H21.7285C21.8359 32.8887 22.2461 32.5811 22.9004 32.5811C23.6035 32.5811 24.0137 32.9521 24.0137 33.5723V33.9971L22.5586 34.0801C21.3867 34.1484 20.7178 34.6953 20.7178 35.5645C20.7178 36.4775 21.3965 37.0879 22.4072 37.0879ZM22.5977 36.3652C21.9873 36.3652 21.582 36.0479 21.582 35.5645C21.582 35.0859 21.9727 34.7832 22.6562 34.7393L24.0137 34.6562V35.0713C24.0137 35.8037 23.3984 36.3652 22.5977 36.3652ZM30.1611 33.5869C30.0537 32.6738 29.2969 31.834 28.0273 31.834C26.626 31.834 25.6934 32.8594 25.6934 34.4609C25.6934 36.0967 26.6309 37.0879 28.0371 37.0879C29.1895 37.0879 30.0391 36.375 30.1709 35.3643H29.3359C29.1895 35.9746 28.7354 36.3408 28.042 36.3408C27.1631 36.3408 26.5576 35.6426 26.5576 34.4609C26.5576 33.3086 27.1533 32.5811 28.0322 32.5811C28.7793 32.5811 29.209 33.0352 29.3311 33.5869H30.1611ZM31.2256 30.6963V31.9219H30.4688V32.6201H31.2256V35.6816C31.2256 36.6582 31.5869 37.0391 32.5195 37.0391C32.7197 37.0391 32.9541 37.0244 33.0566 37V36.2871C32.998 36.2969 32.8027 36.3115 32.7051 36.3115C32.2705 36.3115 32.0752 36.1016 32.0752 35.6377V32.6201H33.0615V31.9219H32.0752V30.6963H31.2256ZM33.8818 33.3232C33.8818 34.0557 34.3457 34.5 35.3027 34.7295L36.1084 34.9248C36.6895 35.0664 36.8896 35.2764 36.8896 35.6426C36.8896 36.1016 36.4648 36.3945 35.7764 36.3945C35.0879 36.3945 34.6973 36.1162 34.5947 35.5352H33.7451C33.8428 36.4873 34.585 37.0879 35.7764 37.0879C36.9092 37.0879 37.7441 36.4629 37.7441 35.5791C37.7441 34.8516 37.373 34.4512 36.3477 34.2021L35.542 34.0068C34.9756 33.8701 34.7168 33.6309 34.7168 33.2793C34.7168 32.835 35.127 32.5273 35.7471 32.5273C36.3721 32.5273 36.7627 32.8545 36.8262 33.3867H37.6367C37.6025 32.4883 36.8604 31.834 35.7471 31.834C34.6484 31.834 33.8818 32.4541 33.8818 33.3232Z" fill="white"/>
<path fill-rule="evenodd" clip-rule="evenodd" d="M32 12.5C32 19.4036 26.4036 25 19.5 25C12.5964 25 7 19.4036 7 12.5C7 5.59644 12.5964 0 19.5 0C26.4036 0 32 5.59644 32 12.5ZM23 9C23 11.2091 21.2091 13 19 13C16.7909 13 15 11.2091 15 9C15 6.79086 16.7909 5 19 5C21.2091 5 23 6.79086 23 9ZM12 19C15.8258 23.846 23.1742 23.846 27 19C22.7768 15.0584 16.2232 15.0584 12 19Z" fill="white"/>
</svg>
