<svg width="35" height="40" viewBox="0 0 35 40" fill="none" xmlns="http://www.w3.org/2000/svg">
<path opacity="0.5" d="M0.341797 36.1104C0.424805 37.3262 1.4502 38.1172 2.98828 38.1172C4.56543 38.1172 5.59082 37.3018 5.59082 35.998C5.59082 35.002 5.00977 34.416 3.54004 34.0938L2.75879 33.9229C1.79688 33.7129 1.4209 33.332 1.4209 32.7754C1.4209 32.0576 2.09961 31.6279 2.97852 31.6279C3.89648 31.6279 4.50684 32.1016 4.58496 32.873H5.46387C5.4248 31.6768 4.40918 30.8369 3.00293 30.8369C1.54297 30.8369 0.517578 31.6523 0.517578 32.8145C0.517578 33.8154 1.12793 34.4551 2.53906 34.7627L3.32031 34.9336C4.29688 35.1484 4.6875 35.5391 4.6875 36.1299C4.6875 36.8232 3.99414 37.3262 3.03711 37.3262C2.02637 37.3262 1.32324 36.8672 1.2207 36.1104H0.341797ZM9.8584 36.5449C9.7168 37.0234 9.24316 37.3506 8.59863 37.3506C7.68555 37.3506 7.11426 36.7109 7.11426 35.7393V35.6904H10.7568V35.3682C10.7568 33.8301 9.91211 32.834 8.54004 32.834C7.13867 32.834 6.24023 33.9033 6.24023 35.4805C6.24023 37.0771 7.12402 38.0879 8.5791 38.0879C9.6875 38.0879 10.5469 37.4336 10.6934 36.5449H9.8584ZM8.52539 33.5713C9.32617 33.5713 9.8584 34.1768 9.87793 35.0264H7.11914C7.17285 34.1816 7.72949 33.5713 8.52539 33.5713ZM11.8896 31.6963V32.9219H11.1328V33.6201H11.8896V36.6816C11.8896 37.6582 12.251 38.0391 13.1836 38.0391C13.3838 38.0391 13.6182 38.0244 13.7207 38V37.2871C13.6621 37.2969 13.4668 37.3115 13.3691 37.3115C12.9346 37.3115 12.7393 37.1016 12.7393 36.6377V33.6201H13.7256V32.9219H12.7393V31.6963H11.8896ZM14.9072 31.6963V32.9219H14.1504V33.6201H14.9072V36.6816C14.9072 37.6582 15.2686 38.0391 16.2012 38.0391C16.4014 38.0391 16.6357 38.0244 16.7383 38V37.2871C16.6797 37.2969 16.4844 37.3115 16.3867 37.3115C15.9521 37.3115 15.7568 37.1016 15.7568 36.6377V33.6201H16.7432V32.9219H15.7568V31.6963H14.9072ZM18.1201 32.0186C18.418 32.0186 18.6523 31.7793 18.6523 31.4863C18.6523 31.1885 18.418 30.9541 18.1201 30.9541C17.8271 30.9541 17.5879 31.1885 17.5879 31.4863C17.5879 31.7793 17.8271 32.0186 18.1201 32.0186ZM17.6953 38H18.5449V32.9219H17.6953V38ZM19.6924 38H20.542V35.0117C20.542 34.1523 21.0645 33.5859 21.8652 33.5859C22.6465 33.5859 23.0322 34.0352 23.0322 34.8555V38H23.8818V34.7041C23.8818 33.5518 23.2373 32.834 22.124 32.834C21.3379 32.834 20.7959 33.1855 20.5127 33.7324H20.4932V32.9219H19.6924V38ZM27.0605 39.9141C28.4619 39.9141 29.3555 39.1084 29.3555 37.8975V32.9219H28.5449V33.7764H28.5303C28.1934 33.1855 27.5977 32.834 26.8799 32.834C25.5664 32.834 24.7168 33.8496 24.7168 35.4414C24.7168 37.0186 25.5664 38.0391 26.8604 38.0391C27.5732 38.0391 28.1738 37.6777 28.4863 37.126H28.5059V37.9268C28.5059 38.6836 27.9736 39.1914 27.0947 39.1914C26.46 39.1914 25.957 38.8838 25.791 38.4199H24.917C25.0586 39.2842 25.9424 39.9141 27.0605 39.9141ZM27.0312 37.292C26.1572 37.292 25.5859 36.5791 25.5859 35.4414C25.5859 34.3037 26.1572 33.5811 27.0312 33.5811C27.915 33.5811 28.5059 34.3232 28.5059 35.4414C28.5059 36.5596 27.915 37.292 27.0312 37.292ZM30.376 34.3232C30.376 35.0557 30.8398 35.5 31.7969 35.7295L32.6025 35.9248C33.1836 36.0664 33.3838 36.2764 33.3838 36.6426C33.3838 37.1016 32.959 37.3945 32.2705 37.3945C31.582 37.3945 31.1914 37.1162 31.0889 36.5352H30.2393C30.3369 37.4873 31.0791 38.0879 32.2705 38.0879C33.4033 38.0879 34.2383 37.4629 34.2383 36.5791C34.2383 35.8516 33.8672 35.4512 32.8418 35.2021L32.0361 35.0068C31.4697 34.8701 31.2109 34.6309 31.2109 34.2793C31.2109 33.835 31.6211 33.5273 32.2412 33.5273C32.8662 33.5273 33.2568 33.8545 33.3203 34.3867H34.1309C34.0967 33.4883 33.3545 32.834 32.2412 32.834C31.1426 32.834 30.376 33.4541 30.376 34.3232Z" fill="white"/>
<path fill-rule="evenodd" clip-rule="evenodd" d="M17 3.04488C17 3.04488 16.7484 0 18 0C19.2516 0 19 3 19 3C20.2371 3.11148 21.4152 3.47267 22.5 3.95963C22.5 3.95963 23.9826 1.29029 25 2C25.9848 2.68698 24.5 5 24.5 5C25.5376 5.73068 26.2693 6.63626 27 7.67388C27 7.67388 29.2456 6.06577 30 7C30.8068 7.99922 28.13 9.70527 28.13 9.70527C28.5662 10.7329 28.8507 11.8405 28.9552 13C28.9552 13 32 12.7484 32 14C32 15.2516 28.9552 15.0001 28.9552 15.0001C28.8326 16.36 28.4626 17.6485 27.8904 18.8202C27.8904 18.8202 30.0971 20.5306 29.5 21.5C28.8771 22.5113 26.5 21 26.5 21L26.4335 21.0627C25.8799 21.7231 25.2502 22.3175 24.5578 22.8324C24.5578 22.8324 25.9294 25.2604 25 26C23.9866 26.8065 22.2474 24.15 22.2474 24.15C21.2331 24.575 20.1417 24.8523 19 24.9552C19 24.9552 19.2516 28 18 28C16.7484 28 17 24.9552 17 24.9552C15.7629 24.8437 14.5848 24.5274 13.5 24.0405C13.5 24.0405 12.0298 26.6916 11 26C10.014 25.3378 11.3796 22.7855 11.3796 22.7855C10.4381 22.0749 9.61436 21.2164 8.94304 20.2445C8.96191 20.2718 8.98089 20.2991 9 20.3262C9 20.3262 6.42123 22.1105 6 21C5.60826 19.9672 8.0296 18.6529 8.0296 18.6529C7.50291 17.5262 7.16158 16.2955 7.04484 15C7.04484 15 4 15.2516 4 14C4 12.7485 7.04484 13 7.04484 13C7.13942 11.9506 7.38139 10.9436 7.7499 10C7.7499 10 5.49084 8.51841 6 7.50004C6.5 6.5 8.68842 8.1412 8.68842 8.1412C9.30472 7.16375 10.0707 6.29012 10.9541 5.55247L11 5.50004C11 5.50004 9.48869 3.1229 10.5 2.50004C11.4694 1.90296 13 4.00004 13 4.00004C14.1834 3.41569 15.6232 3.16896 17 3.04488ZM27 14C27 18.9706 22.9706 23 18 23C13.0294 23 9 18.9706 9 14C9 9.02944 13.0294 5 18 5C22.9706 5 27 9.02944 27 14ZM18 7C21.5265 7 24.4439 9.60771 24.9291 13L19.5658 13C19.1937 13 18.8267 12.9134 18.4939 12.747C18.1689 12.5844 17.8851 12.3502 17.6639 12.0618L14.5 7.93648C15.5296 7.34088 16.725 7 18 7ZM13.101 9C11.8045 10.2705 11 12.0413 11 14C11 16.3787 12.1865 18.4804 14 19.7453L16.7934 14.8612C16.9288 14.6245 17 14.3566 17 14.0839C17 13.7073 16.8642 13.3433 16.6176 13.0587L13.101 9ZM15.2381 20.434C16.0854 20.7983 17.0192 21 18 21C21.5265 21 24.5148 17.8923 25 14.5H19.4665C19.1597 14.5 18.8571 14.5714 18.5827 14.7086C18.2043 14.8979 17.8965 15.2036 17.7048 15.5808L15.2381 20.434Z" fill="#666666"/>
</svg>
