<svg width="35" height="40" viewBox="0 0 35 40" fill="none" xmlns="http://www.w3.org/2000/svg">
<path d="M0.341797 36.1104C0.424805 37.3262 1.4502 38.1172 2.98828 38.1172C4.56543 38.1172 5.59082 37.3018 5.59082 35.998C5.59082 35.002 5.00977 34.416 3.54004 34.0938L2.75879 33.9229C1.79688 33.7129 1.4209 33.332 1.4209 32.7754C1.4209 32.0576 2.09961 31.6279 2.97852 31.6279C3.89648 31.6279 4.50684 32.1016 4.58496 32.873H5.46387C5.4248 31.6768 4.40918 30.8369 3.00293 30.8369C1.54297 30.8369 0.517578 31.6523 0.517578 32.8145C0.517578 33.8154 1.12793 34.4551 2.53906 34.7627L3.32031 34.9336C4.29688 35.1484 4.6875 35.5391 4.6875 36.1299C4.6875 36.8232 3.99414 37.3262 3.03711 37.3262C2.02637 37.3262 1.32324 36.8672 1.2207 36.1104H0.341797ZM9.8584 36.5449C9.7168 37.0234 9.24316 37.3506 8.59863 37.3506C7.68555 37.3506 7.11426 36.7109 7.11426 35.7393V35.6904H10.7568V35.3682C10.7568 33.8301 9.91211 32.834 8.54004 32.834C7.13867 32.834 6.24023 33.9033 6.24023 35.4805C6.24023 37.0771 7.12402 38.0879 8.5791 38.0879C9.6875 38.0879 10.5469 37.4336 10.6934 36.5449H9.8584ZM8.52539 33.5713C9.32617 33.5713 9.8584 34.1768 9.87793 35.0264H7.11914C7.17285 34.1816 7.72949 33.5713 8.52539 33.5713ZM11.8896 31.6963V32.9219H11.1328V33.6201H11.8896V36.6816C11.8896 37.6582 12.251 38.0391 13.1836 38.0391C13.3838 38.0391 13.6182 38.0244 13.7207 38V37.2871C13.6621 37.2969 13.4668 37.3115 13.3691 37.3115C12.9346 37.3115 12.7393 37.1016 12.7393 36.6377V33.6201H13.7256V32.9219H12.7393V31.6963H11.8896ZM14.9072 31.6963V32.9219H14.1504V33.6201H14.9072V36.6816C14.9072 37.6582 15.2686 38.0391 16.2012 38.0391C16.4014 38.0391 16.6357 38.0244 16.7383 38V37.2871C16.6797 37.2969 16.4844 37.3115 16.3867 37.3115C15.9521 37.3115 15.7568 37.1016 15.7568 36.6377V33.6201H16.7432V32.9219H15.7568V31.6963H14.9072ZM18.1201 32.0186C18.418 32.0186 18.6523 31.7793 18.6523 31.4863C18.6523 31.1885 18.418 30.9541 18.1201 30.9541C17.8271 30.9541 17.5879 31.1885 17.5879 31.4863C17.5879 31.7793 17.8271 32.0186 18.1201 32.0186ZM17.6953 38H18.5449V32.9219H17.6953V38ZM19.6924 38H20.542V35.0117C20.542 34.1523 21.0645 33.5859 21.8652 33.5859C22.6465 33.5859 23.0322 34.0352 23.0322 34.8555V38H23.8818V34.7041C23.8818 33.5518 23.2373 32.834 22.124 32.834C21.3379 32.834 20.7959 33.1855 20.5127 33.7324H20.4932V32.9219H19.6924V38ZM27.0605 39.9141C28.4619 39.9141 29.3555 39.1084 29.3555 37.8975V32.9219H28.5449V33.7764H28.5303C28.1934 33.1855 27.5977 32.834 26.8799 32.834C25.5664 32.834 24.7168 33.8496 24.7168 35.4414C24.7168 37.0186 25.5664 38.0391 26.8604 38.0391C27.5732 38.0391 28.1738 37.6777 28.4863 37.126H28.5059V37.9268C28.5059 38.6836 27.9736 39.1914 27.0947 39.1914C26.46 39.1914 25.957 38.8838 25.791 38.4199H24.917C25.0586 39.2842 25.9424 39.9141 27.0605 39.9141ZM27.0312 37.292C26.1572 37.292 25.5859 36.5791 25.5859 35.4414C25.5859 34.3037 26.1572 33.5811 27.0312 33.5811C27.915 33.5811 28.5059 34.3232 28.5059 35.4414C28.5059 36.5596 27.915 37.292 27.0312 37.292ZM30.376 34.3232C30.376 35.0557 30.8398 35.5 31.7969 35.7295L32.6025 35.9248C33.1836 36.0664 33.3838 36.2764 33.3838 36.6426C33.3838 37.1016 32.959 37.3945 32.2705 37.3945C31.582 37.3945 31.1914 37.1162 31.0889 36.5352H30.2393C30.3369 37.4873 31.0791 38.0879 32.2705 38.0879C33.4033 38.0879 34.2383 37.4629 34.2383 36.5791C34.2383 35.8516 33.8672 35.4512 32.8418 35.2021L32.0361 35.0068C31.4697 34.8701 31.2109 34.6309 31.2109 34.2793C31.2109 33.835 31.6211 33.5273 32.2412 33.5273C32.8662 33.5273 33.2568 33.8545 33.3203 34.3867H34.1309C34.0967 33.4883 33.3545 32.834 32.2412 32.834C31.1426 32.834 30.376 33.4541 30.376 34.3232Z" fill="white"/>
<path fill-rule="evenodd" clip-rule="evenodd" d="M16 3.04488C16 3.04488 15.7484 0 17 0C18.2516 0 18 3 18 3C19.2371 3.11148 20.4152 3.47267 21.5 3.95963C21.5 3.95963 22.9826 1.29029 24 2C24.9848 2.68698 23.5 5 23.5 5C24.5376 5.73068 25.2693 6.63626 26 7.67388C26 7.67388 28.2456 6.06577 29 7C29.8068 7.99922 27.13 9.70527 27.13 9.70527C27.5662 10.7329 27.8507 11.8405 27.9552 13C27.9552 13 31 12.7484 31 14C31 15.2516 27.9552 15.0001 27.9552 15.0001C27.8326 16.36 27.4626 17.6485 26.8904 18.8202C26.8904 18.8202 29.0971 20.5306 28.5 21.5C27.8771 22.5113 25.5 21 25.5 21L25.4335 21.0627C24.8799 21.7231 24.2502 22.3175 23.5578 22.8324C23.5578 22.8324 24.9294 25.2604 24 26C22.9866 26.8065 21.2474 24.15 21.2474 24.15C20.2331 24.575 19.1417 24.8523 18 24.9552C18 24.9552 18.2516 28 17 28C15.7484 28 16 24.9552 16 24.9552C14.7629 24.8437 13.5848 24.5274 12.5 24.0405C12.5 24.0405 11.0298 26.6916 10 26C9.01402 25.3378 10.3796 22.7855 10.3796 22.7855C9.43806 22.0749 8.61436 21.2164 7.94304 20.2445C7.96191 20.2718 7.98089 20.2991 8 20.3262C8 20.3262 5.42123 22.1105 5 21C4.60826 19.9672 7.0296 18.6529 7.0296 18.6529C6.50291 17.5262 6.16158 16.2955 6.04484 15C6.04484 15 3 15.2516 3 14C3 12.7485 6.04484 13 6.04484 13C6.13942 11.9506 6.38139 10.9436 6.7499 10C6.7499 10 4.49084 8.51841 5 7.50004C5.5 6.5 7.68842 8.1412 7.68842 8.1412C8.30472 7.16375 9.07067 6.29012 9.95411 5.55247L10 5.50004C10 5.50004 8.48869 3.1229 9.5 2.50004C10.4694 1.90296 12 4.00004 12 4.00004C13.1834 3.41569 14.6232 3.16896 16 3.04488ZM26 14C26 18.9706 21.9706 23 17 23C12.0294 23 8 18.9706 8 14C8 9.02944 12.0294 5 17 5C21.9706 5 26 9.02944 26 14ZM17 7C20.5265 7 23.4439 9.60771 23.9291 13L18.5658 13C18.1937 13 17.8267 12.9134 17.4939 12.747C17.1689 12.5844 16.8851 12.3502 16.6639 12.0618L13.5 7.93648C14.5296 7.34088 15.725 7 17 7ZM12.101 9C10.8045 10.2705 10 12.0413 10 14C10 16.3787 11.1865 18.4804 13 19.7453L15.7934 14.8612C15.9288 14.6245 16 14.3566 16 14.0839C16 13.7073 15.8642 13.3433 15.6176 13.0587L12.101 9ZM14.2381 20.434C15.0854 20.7983 16.0192 21 17 21C20.5265 21 23.5148 17.8923 24 14.5H18.4665C18.1597 14.5 17.8571 14.5714 17.5827 14.7086C17.2043 14.8979 16.8965 15.2036 16.7048 15.5808L14.2381 20.434Z" fill="white"/>
</svg>
